<svg width="16" height="16" viewBox="0 0 16 16" fill="none" xmlns="http://www.w3.org/2000/svg">
<path d="M9.62008 12.5474C9.49341 12.5474 9.36675 12.5007 9.26675 12.4007C9.07341 12.2074 9.07341 11.8874 9.26675 11.6941L12.9601 8.00073L9.26675 4.3074C9.07341 4.11406 9.07341 3.79406 9.26675 3.60073C9.46008 3.4074 9.78008 3.4074 9.97341 3.60073L14.0201 7.6474C14.2134 7.84073 14.2134 8.16073 14.0201 8.35406L9.97341 12.4007C9.87341 12.5007 9.74675 12.5474 9.62008 12.5474Z" fill="white"/>
<path d="M13.5546 8.5H2.33464C2.0613 8.5 1.83464 8.27333 1.83464 8C1.83464 7.72667 2.0613 7.5 2.33464 7.5H13.5546C13.828 7.5 14.0546 7.72667 14.0546 8C14.0546 8.27333 13.828 8.5 13.5546 8.5Z" fill="white"/>
</svg>
